<?xml version="1.0" standalone="no"?>
<!DOCTYPE svg PUBLIC "-//W3C//DTD SVG 20010904//EN"
 "http://www.w3.org/TR/2001/REC-SVG-20010904/DTD/svg10.dtd">
<svg version="1.0" xmlns="http://www.w3.org/2000/svg"
 width="854.000000pt" height="292.000000pt" viewBox="0 0 854.000000 292.000000"
 preserveAspectRatio="xMidYMid meet">

<g transform="translate(0.000000,292.000000) scale(0.100000,-0.100000)"
fill="#000000" stroke="none">
<path d="M608 2250 c-184 -33 -318 -121 -380 -248 -31 -64 -33 -72 -33 -182 0
-106 2 -120 28 -172 33 -67 106 -137 180 -171 29 -14 131 -48 227 -77 377
-112 392 -118 435 -175 72 -94 21 -228 -109 -286 -204 -89 -458 -4 -543 182
-25 53 -30 59 -58 59 -38 0 -216 -27 -222 -34 -8 -7 26 -115 53 -168 32 -64
130 -166 197 -206 218 -131 566 -127 774 9 112 73 173 166 194 297 22 132 -13
254 -97 337 -65 65 -165 108 -419 180 -126 36 -254 77 -283 91 -151 74 -133
240 33 316 42 19 67 23 150 22 108 0 162 -16 232 -70 39 -29 89 -100 99 -138
3 -15 13 -30 20 -33 8 -3 56 2 106 11 164 29 151 24 144 58 -11 55 -70 160
-121 216 -111 122 -252 181 -445 187 -63 2 -136 0 -162 -5z"/>
<path d="M4227 2254 c-4 -4 -7 -56 -7 -116 l0 -108 125 0 126 0 -3 113 -3 112
-116 3 c-63 1 -118 -1 -122 -4z"/>
<path d="M1960 1874 c-168 -31 -287 -111 -351 -236 -16 -32 -29 -61 -29 -66 0
-8 193 -72 215 -72 6 0 22 21 37 45 39 64 108 97 216 103 99 5 156 -12 201
-63 26 -30 51 -88 51 -121 0 -12 -68 -28 -195 -44 -310 -41 -466 -110 -530
-235 -28 -54 -30 -66 -30 -164 0 -92 3 -113 24 -155 71 -144 222 -208 433
-185 102 12 188 50 256 113 27 25 54 46 61 46 7 0 11 -23 11 -68 l0 -67 103 0
102 0 3 395 c2 260 -1 417 -8 460 -34 199 -184 306 -440 315 -58 2 -116 2
-130 -1z m330 -718 c-22 -174 -127 -275 -296 -284 -140 -8 -214 45 -214 150 0
83 74 142 219 174 110 25 286 51 294 44 4 -3 3 -41 -3 -84z"/>
<path d="M3311 1870 c-65 -14 -163 -63 -208 -104 -22 -20 -43 -36 -46 -36 -3
0 -7 26 -9 58 l-3 57 -105 0 -105 0 0 -570 0 -570 122 -1 122 0 3 365 c3 358
4 367 26 416 28 60 73 109 127 138 31 16 58 21 121 22 73 0 85 -3 130 -30 29
-18 60 -49 77 -76 55 -90 60 -123 64 -497 l5 -343 121 3 122 3 0 380 c0 426
-3 446 -72 585 -68 135 -180 200 -353 206 -52 2 -115 -1 -139 -6z"/>
<path d="M5175 1871 c-292 -63 -455 -280 -455 -604 0 -187 48 -315 161 -428
112 -113 240 -162 423 -161 160 0 285 51 389 157 62 62 115 153 95 160 -45 16
-213 65 -224 65 -8 0 -14 -4 -14 -8 0 -22 -77 -94 -126 -118 -45 -22 -69 -27
-137 -28 -90 0 -145 18 -204 68 -39 33 -90 136 -95 191 l-3 40 419 3 419 2 -6
114 c-18 338 -203 539 -507 551 -52 2 -113 0 -135 -4z m256 -238 c42 -22 61
-40 86 -82 32 -53 51 -130 38 -150 -4 -7 -96 -11 -281 -11 -311 0 -299 -3
-269 78 35 91 100 159 176 180 19 6 70 11 115 11 69 1 88 -3 135 -26z"/>
<path d="M6460 1870 c-212 -37 -378 -193 -436 -411 -21 -79 -24 -269 -5 -353
45 -202 217 -375 416 -416 77 -16 219 -16 287 0 78 19 174 68 231 120 49 43
127 151 127 174 0 10 -196 76 -223 76 -4 0 -35 -28 -70 -63 -67 -68 -104 -85
-202 -92 -156 -11 -290 100 -311 258 l-7 47 417 0 416 0 0 84 c0 264 -114 463
-311 543 -100 40 -218 52 -329 33z m272 -246 c23 -16 53 -45 66 -64 27 -40 56
-135 48 -156 -4 -12 -50 -14 -286 -14 l-280 0 0 28 c0 44 54 145 96 180 60 50
105 62 216 59 90 -2 101 -5 140 -33z"/>
<path d="M4227 1844 c-4 -4 -7 -298 -7 -653 0 -622 -1 -646 -20 -686 -25 -52
-64 -75 -128 -75 -84 0 -82 3 -82 -127 l0 -115 128 5 c191 7 264 42 319 155
l28 57 0 720 0 720 -116 3 c-63 1 -118 -1 -122 -4z"/>
<path d="M7210 1837 c0 -7 84 -242 186 -522 102 -281 193 -532 203 -560 l17
-50 123 0 c70 0 126 4 130 10 4 6 36 89 70 185 35 96 87 240 117 320 177 481
223 615 216 622 -5 5 -60 7 -122 6 l-114 -3 -54 -155 c-30 -85 -89 -256 -132
-380 -95 -274 -97 -280 -110 -280 -5 0 -10 2 -10 4 0 3 -81 238 -191 556 -23
63 -50 142 -60 175 -11 33 -28 66 -37 73 -23 17 -232 17 -232 -1z"/>
</g>
</svg>
